<?xml version="1.0" encoding="UTF-8" standalone="no"?>
<svg
   viewBox="0 0 48 48"
   width="48px"
   height="48px"
   version="1.1"
   id="svg1"
   sodipodi:docname="home.svg"
   inkscape:version="1.3.2 (091e20e, 2023-11-25, custom)"
   xmlns:inkscape="http://www.inkscape.org/namespaces/inkscape"
   xmlns:sodipodi="http://sodipodi.sourceforge.net/DTD/sodipodi-0.dtd"
   xmlns="http://www.w3.org/2000/svg"
   xmlns:svg="http://www.w3.org/2000/svg">
  <defs
     id="defs1" />
  <sodipodi:namedview
     id="namedview1"
     pagecolor="#ffffff"
     bordercolor="#000000"
     borderopacity="0.25"
     inkscape:showpageshadow="2"
     inkscape:pageopacity="0.0"
     inkscape:pagecheckerboard="0"
     inkscape:deskcolor="#d1d1d1"
     inkscape:zoom="11.539315"
     inkscape:cx="31.111032"
     inkscape:cy="34.620773"
     inkscape:window-width="3440"
     inkscape:window-height="1369"
     inkscape:window-x="-8"
     inkscape:window-y="-8"
     inkscape:window-maximized="1"
     inkscape:current-layer="svg1"
     showgrid="false" />
  <path
     d="m 34.873304,36.673802 h -6.31353 c -0.968777,0 -1.753759,-0.755974 -1.753759,-1.68895 v -6.080215 c 0,-0.746516 -0.627846,-1.35116 -1.403008,-1.35116 h -2.806014 c -0.775162,0 -1.403008,0.604644 -1.403008,1.35116 v 6.080215 c 0,0.932976 -0.784982,1.68895 -1.753759,1.68895 h -6.313531 c -0.968776,0 -1.753759,-0.755974 -1.753759,-1.68895 V 22.090066 c 0,-1.553158 0.739384,-3.020517 2.005599,-3.98119 l 9.969768,-7.565816 c 0.38232,-0.289149 0.921074,-0.289149 1.302692,0 l 9.971172,7.565816 c 1.266214,0.960673 2.004896,2.427356 2.004896,3.979838 v 12.896138 c 0,0.932976 -0.784982,1.68895 -1.753759,1.68895 z"
     id="path1"
     style="fill:#ececec;stroke-width:0.68842" />
</svg>
