<?xml version="1.0" encoding="UTF-8" standalone="no"?>
<!-- Uploaded to: SVG Repo, www.svgrepo.com, Generator: SVG Repo Mixer Tools -->

<svg
   width="64"
   height="64"
   viewBox="0 0 1.92 1.92"
   fill="none"
   version="1.1"
   id="svg2"
   sodipodi:docname="profile.svg"
   inkscape:version="1.3.2 (091e20e, 2023-11-25, custom)"
   xmlns:inkscape="http://www.inkscape.org/namespaces/inkscape"
   xmlns:sodipodi="http://sodipodi.sourceforge.net/DTD/sodipodi-0.dtd"
   xmlns="http://www.w3.org/2000/svg"
   xmlns:svg="http://www.w3.org/2000/svg">
  <defs
     id="defs2" />
  <sodipodi:namedview
     id="namedview2"
     pagecolor="#ffffff"
     bordercolor="#000000"
     borderopacity="0.25"
     inkscape:showpageshadow="2"
     inkscape:pageopacity="0.0"
     inkscape:pagecheckerboard="0"
     inkscape:deskcolor="#d1d1d1"
     inkscape:zoom="1.46625"
     inkscape:cx="399.65899"
     inkscape:cy="290.53708"
     inkscape:window-width="2040"
     inkscape:window-height="1360"
     inkscape:window-x="1391"
     inkscape:window-y="243"
     inkscape:window-maximized="0"
     inkscape:current-layer="svg2" />
  <path
     d="M 1.92,0.96 C 1.92,0.43104 1.48896,0 0.96,0 0.43104,0 0,0.43104 0,0.96 c 0,0.2784 0.12,0.52896 0.31008,0.70464 0,9.6e-4 0,9.6e-4 -9.6e-4,0.00192 0.0096,0.0096 0.02112,0.01728 0.03072,0.02592 0.00576,0.0048 0.01056,0.0096 0.01632,0.01344 0.01728,0.0144 0.03648,0.02784 0.05472,0.04128 0.00672,0.0048 0.01248,0.00864 0.0192,0.01344 0.01824,0.01248 0.03744,0.024 0.0576,0.03456 0.00672,0.00384 0.0144,0.00864 0.02112,0.01248 0.0192,0.01056 0.03936,0.02016 0.06048,0.0288 0.00768,0.00384 0.01536,0.00768 0.02304,0.01056 0.02112,0.00864 0.04224,0.01632 0.06336,0.02304 0.00768,0.00288 0.01536,0.00576 0.02304,0.00768 0.02304,0.00672 0.04608,0.01248 0.06912,0.01824 0.00672,0.00192 0.01344,0.00384 0.02112,0.0048 0.02688,0.00576 0.05376,0.0096 0.0816,0.01248 0.00384,0 0.00768,9.6e-4 0.01152,0.00192 C 0.89472,1.91808 0.92736,1.92 0.96,1.92 0.99264,1.92 1.02528,1.91808 1.05696,1.9152 1.0608,1.9152 1.06464,1.91424 1.06848,1.91328 1.09632,1.9104 1.1232,1.90656 1.15008,1.9008 1.1568,1.89984 1.16352,1.89696 1.1712,1.896 1.19424,1.89024 1.21824,1.88544 1.24032,1.87776 1.248,1.87488 1.25568,1.872 1.26336,1.87008 1.28448,1.8624 1.30656,1.85568 1.32672,1.84704 1.3344,1.84416 1.34208,1.84032 1.34976,1.83648 1.36992,1.82784 1.39008,1.81824 1.41024,1.80768 1.41792,1.80384 1.42464,1.79904 1.43136,1.7952 1.45056,1.78368 1.46976,1.77312 1.48896,1.76064 1.49568,1.7568 1.50144,1.752 1.50816,1.7472 1.52736,1.73376 1.5456,1.72032 1.56288,1.70592 1.56864,1.70112 1.57344,1.69632 1.5792,1.69248 1.58976,1.68384 1.60032,1.6752 1.60992,1.66656 c 0,-9.6e-4 0,-9.6e-4 -9.6e-4,-0.00192 C 1.8,1.48896 1.92,1.2384 1.92,0.96 Z M 1.43424,1.43712 C 1.17408,1.2624 0.74784,1.2624 0.48576,1.43712 0.44352,1.46496 0.40896,1.4976 0.38016,1.53312 0.23424,1.38528 0.144,1.18272 0.144,0.96 c 0,-0.45024 0.36576,-0.816 0.816,-0.816 0.45024,0 0.816,0.36576 0.816,0.816 0,0.22272 -0.09024,0.42528 -0.23616,0.57312 C 1.512,1.4976 1.47648,1.46496 1.43424,1.43712 Z"
     fill="#292d32"
     id="path1"
     style="stroke-width:0.096;fill:#666666" />
  <path
     d="m 0.96,0.4732502 c -0.19872,0 -0.36,0.16128 -0.36,0.360001 0,0.19488 0.15264,0.35328 0.3552,0.35904 0.00288,0 0.00672,0 0.00864,0 0.00192,0 0.0048,0 0.00672,0 9.6e-4,0 0.00192,0 0.00192,0 0.19392,-0.00672 0.34656,-0.16416 0.34752,-0.35904 0,-0.198721 -0.16128,-0.360001 -0.36,-0.360001 z"
     fill="#292d32"
     id="path2"
     style="stroke-width:0.096;fill:#666666" />
</svg>
