<?xml version="1.0" encoding="UTF-8" standalone="no"?>
<svg
   viewBox="0 0 48 48"
   width="48px"
   height="48px"
   version="1.1"
   id="svg1"
   sodipodi:docname="home-dark.svg"
   inkscape:version="1.3.2 (091e20ef0f, 2023-11-25)"
   xmlns:inkscape="http://www.inkscape.org/namespaces/inkscape"
   xmlns:sodipodi="http://sodipodi.sourceforge.net/DTD/sodipodi-0.dtd"
   xmlns="http://www.w3.org/2000/svg"
   xmlns:svg="http://www.w3.org/2000/svg">
  <defs
     id="defs1" />
  <sodipodi:namedview
     id="namedview1"
     pagecolor="#ffffff"
     bordercolor="#000000"
     borderopacity="0.25"
     inkscape:showpageshadow="2"
     inkscape:pageopacity="0.0"
     inkscape:pagecheckerboard="0"
     inkscape:deskcolor="#d1d1d1"
     inkscape:zoom="11.539315"
     inkscape:cx="31.067703"
     inkscape:cy="34.620773"
     inkscape:window-width="3440"
     inkscape:window-height="1371"
     inkscape:window-x="0"
     inkscape:window-y="346"
     inkscape:window-maximized="1"
     inkscape:current-layer="svg1" />
  <path
     d="M39.5,43h-9c-1.381,0-2.5-1.119-2.5-2.5v-9c0-1.105-0.895-2-2-2h-4c-1.105,0-2,0.895-2,2v9c0,1.381-1.119,2.5-2.5,2.5h-9 C7.119,43,6,41.881,6,40.5V21.413c0-2.299,1.054-4.471,2.859-5.893L23.071,4.321c0.545-0.428,1.313-0.428,1.857,0L39.142,15.52 C40.947,16.942,42,19.113,42,21.411V40.5C42,41.881,40.881,43,39.5,43z"
     id="path1"
     style="fill:#ececec" />
</svg>
